<svg xmlns="http://www.w3.org/2000/svg" xmlns:xlink="http://www.w3.org/1999/xlink" viewBox="0 0 1200 80" width="1200" height="80">
  <defs>
    <linearGradient id="rule" x1="0" y1="0" x2="1" y2="0">
      <stop offset="0" stop-color="#8338EC"/>
      <stop offset="0.35" stop-color="#0077B6"/>
      <stop offset="0.7" stop-color="#1A7A4A"/>
      <stop offset="1" stop-color="#C9184A"/>
    </linearGradient>
  </defs>
  <line x1="0" y1="40" x2="1200" y2="40" stroke="url(#rule)" stroke-width="2" opacity="0.35"/>
  <circle cx="300" cy="40" r="4.5" fill="#FF5555">
    <animate attributeName="opacity" values="1;1;0;0" keyTimes="0;0.045918;0.049918;1" dur="28s" repeatCount="indefinite"/>
  </circle>
  <circle cx="600" cy="40" r="4.5" fill="#FF5555">
    <animate attributeName="opacity" values="1;1;0;0" keyTimes="0;0.071429;0.075429;1" dur="28s" repeatCount="indefinite"/>
  </circle>
  <circle cx="900" cy="40" r="4.5" fill="#FF5555">
    <animate attributeName="opacity" values="1;1;0;0" keyTimes="0;0.096939;0.100939;1" dur="28s" repeatCount="indefinite"/>
  </circle>
  <path id="track" pathLength="1000" fill="none" stroke="#50FA7B" stroke-width="12" stroke-linecap="round"
        stroke-dasharray="120 1880" stroke-dashoffset="120"
        d="M -240 40 Q -200 16 -160 40 T -80 40 T 0 40 T 80 40 T 160 40 T 240 40 T 320 40 T 400 40 T 480 40 T 560 40 T 640 40 T 720 40 T 800 40 T 880 40 T 960 40 T 1040 40 T 1120 40 T 1200 40 T 1280 40 T 1360 40 T 1440 40">
    <animate attributeName="stroke-dashoffset" values="120;-880;-880" keyTimes="0;0.142857;1" dur="28s" repeatCount="indefinite"/>
  </path>
  <g>
    <animateMotion dur="28s" repeatCount="indefinite" rotate="auto" calcMode="linear" keyPoints="0;1;1" keyTimes="0;0.142857;1">
      <mpath xlink:href="#track" href="#track"/>
    </animateMotion>
    <path d="M14 0 L28 -5 M14 0 L28 5" stroke="#FF5555" stroke-width="2.5" stroke-linecap="round" fill="none">
      <animate attributeName="opacity" values="0;0;1;1;0" keyTimes="0;0.55;0.65;0.85;1" dur="0.9s" repeatCount="indefinite"/>
    </path>
    <ellipse cx="4" cy="0" rx="13" ry="9" fill="#50FA7B"/>
    <circle cx="8" cy="-4.5" r="3.2" fill="#F8F8F2"/>
    <circle cx="8" cy="4.5" r="3.2" fill="#F8F8F2"/>
    <circle cx="9.5" cy="-4.5" r="1.7" fill="#282a36"/>
    <circle cx="9.5" cy="4.5" r="1.7" fill="#282a36"/>
  </g>
</svg>
